<?xml version="1.0" encoding="UTF-8" standalone="no"?>
<!DOCTYPE svg PUBLIC "-//W3C//DTD SVG 1.1//EN" "http://www.w3.org/Graphics/SVG/1.1/DTD/svg11.dtd">
<svg xmlns="http://www.w3.org/2000/svg" version="1.1" viewBox="0.00 0.00 787.00 100.00">
<g stroke-width="2.00" fill="none" stroke-linecap="butt">
<path stroke="#bd903e" vector-effect="non-scaling-stroke" d="
  M 366.08 6.53
  Q 364.64 7.99 362.24 7.56
  C 345.03 4.45 325.46 5.19 307.74 5.48
  C 289.78 5.77 273.39 5.63 256.22 5.52
  Q 254.96 5.51 248.45 6.05
  Q 243.46 6.47 238.24 5.35"
/>
<path stroke="#b8962c" vector-effect="non-scaling-stroke" d="
  M 388.04 33.67
  Q 385.85 34.28 386.47 38.27
  Q 386.69 39.64 386.46 41.25
  C 386.11 43.78 387.07 47.08 387.12 48.74
  Q 387.46 59.12 387.98 69.50
  Q 388.15 72.88 387.68 76.22
  C 387.56 77.12 387.01 77.73 386.10 77.78
  Q 385.64 77.81 385.22 78.01
  C 378.53 81.32 372.26 83.01 364.92 84.21
  C 360.45 84.94 356.60 83.51 351.82 84.31
  Q 347.54 85.02 343.17 84.34
  Q 342.75 84.27 342.75 83.85
  Q 342.75 83.71 342.75 83.57
  Q 342.74 83.09 342.26 83.07
  C 331.70 82.64 319.38 84.06 310.94 84.12
  Q 300.51 84.19 290.10 83.74
  C 277.07 83.18 264.47 83.35 251.65 82.78
  C 241.61 82.34 232.42 84.64 223.02 79.70
  C 219.43 77.81 214.70 77.44 210.66 76.07"
/>
<path stroke="#b8962c" vector-effect="non-scaling-stroke" d="
  M 209.43 68.02
  Q 209.04 68.89 210.59 68.56
  Q 210.98 68.47 210.97 68.08
  Q 210.94 59.21 213.63 50.78
  A 0.45 0.30 85.9 0 0 213.17 50.19
  Q 213.04 50.33 212.27 49.99"
/>
<path stroke="#41474a" vector-effect="non-scaling-stroke" d="
  M 166.48 3.83
  L 166.15 4.02
  A 0.24 0.24 0.0 0 0 166.26 4.47
  L 182.28 5.56"
/>
<path stroke="#41474a" vector-effect="non-scaling-stroke" d="
  M 188.51 6.36
  Q 188.12 6.60 187.47 6.43
  Q 187.08 6.33 187.13 6.73
  Q 187.18 7.21 187.48 7.45
  Q 187.70 7.63 188.18 7.65
  C 192.72 7.87 202.66 13.59 202.53 17.50
  C 202.29 24.71 200.70 34.76 197.29 42.78
  Q 196.97 43.53 198.22 43.68"
/>
<path stroke="#47505a" vector-effect="non-scaling-stroke" d="
  M 193.53 64.03
  Q 193.22 63.80 192.95 63.75
  A 0.36 0.35 -78.5 0 0 192.55 64.02
  L 190.79 71.70
  A 0.74 0.72 81.7 0 1 190.44 72.18
  C 186.92 74.23 184.11 76.95 180.20 78.33
  Q 177.72 79.21 175.35 80.35
  C 170.72 82.57 164.58 83.41 159.49 83.31
  Q 131.00 82.79 102.56 84.23
  C 96.30 84.55 90.43 84.50 84.33 84.49
  C 75.02 84.46 64.05 85.53 53.79 84.97
  C 50.03 84.76 45.90 83.36 41.80 82.99
  Q 39.74 82.80 34.25 79.48
  C 31.13 77.58 29.78 74.81 27.78 71.87"
/>
<path stroke="#363e48" vector-effect="non-scaling-stroke" d="
  M 551.52 8.06
  L 544.53 8.26
  Q 543.18 8.29 544.47 8.70
  L 545.01 8.88
  Q 545.45 9.01 545.41 9.47
  C 545.29 11.17 545.94 13.00 547.57 13.83
  C 550.79 15.47 550.78 20.60 553.38 23.56
  Q 554.52 24.86 555.72 26.12
  C 557.32 27.80 557.40 30.62 561.03 29.96
  A 0.83 0.81 68.7 0 1 561.89 30.35
  C 563.73 33.46 571.22 37.28 566.08 41.33
  C 560.79 45.49 563.10 48.70 563.26 54.10
  A 1.31 1.28 -26.0 0 1 562.94 55.00
  C 560.00 58.42 556.32 62.09 556.19 66.13
  A 0.39 0.38 -86.6 0 1 555.77 66.51
  Q 555.61 66.50 555.47 66.50
  Q 554.81 66.48 554.73 67.14
  C 553.98 73.61 546.58 70.47 543.66 68.25
  Q 542.56 67.41 541.54 65.19
  C 540.10 62.05 538.62 60.62 535.04 59.58
  Q 530.50 58.27 526.28 56.43"
/>
<path stroke="#47505a" vector-effect="non-scaling-stroke" d="
  M 526.28 56.43
  Q 524.19 54.14 522.38 51.84
  C 518.77 47.24 514.58 43.24 510.92 38.70
  Q 508.44 35.62 506.13 34.43
  Q 500.80 31.68 494.73 32.43"
/>
<path stroke="#6f7478" vector-effect="non-scaling-stroke" d="
  M 494.73 32.43
  L 478.28 31.56
  Q 477.81 31.54 477.54 31.94
  Q 469.70 43.56 466.58 51.33
  C 464.95 55.38 463.37 58.50 462.40 61.47
  C 461.11 65.45 457.75 65.09 454.45 64.28
  Q 453.84 64.14 453.85 64.76
  L 453.95 70.74"
/>
<path stroke="#363e48" vector-effect="non-scaling-stroke" d="
  M 453.95 70.74
  Q 453.44 71.55 453.50 72.29
  A 0.96 0.95 87.7 0 0 454.44 73.16
  L 488.55 73.51
  Q 488.68 73.51 488.59 73.60
  Q 485.03 77.18 480.52 75.46
  Q 475.65 73.60 471.29 74.61
  Q 470.76 74.74 470.93 75.26
  Q 471.13 75.83 470.78 76.24
  C 468.85 78.56 467.86 80.05 464.60 80.10
  Q 464.12 80.11 463.75 80.43
  C 459.94 83.66 451.27 80.65 447.46 82.80
  Q 446.94 83.10 446.40 82.84
  L 440.71 80.13
  Q 440.49 80.02 440.50 79.78
  Q 440.50 79.53 440.50 79.30
  Q 440.49 78.93 440.13 78.87
  C 437.88 78.51 434.41 77.94 433.06 75.91
  A 1.02 1.02 0.0 0 0 432.26 75.47
  Q 430.82 75.40 429.85 74.43
  Q 429.46 74.04 428.93 73.89
  Q 421.64 71.78 415.72 67.01
  Q 415.30 66.67 414.75 66.65
  L 410.76 66.51"
/>
<path stroke="#41474a" vector-effect="non-scaling-stroke" d="
  M 407.16 50.27
  Q 407.55 50.99 408.16 50.28
  A 0.48 0.46 -36.9 0 0 408.24 49.78
  Q 405.63 43.67 405.40 37.41
  C 405.34 35.55 404.51 33.64 403.88 31.96
  Q 403.68 31.44 403.27 31.82
  Q 403.08 32.00 402.97 32.26"
/>
<path stroke="#888a8d" vector-effect="non-scaling-stroke" d="
  M 494.73 32.43
  C 501.73 33.23 504.79 33.42 509.41 39.17
  Q 518.75 50.79 528.04 62.42"
/>
<path stroke="#4e555d" vector-effect="non-scaling-stroke" d="
  M 579.28 59.08
  C 577.03 63.14 576.83 66.17 575.70 70.53
  C 575.19 72.52 574.97 76.35 572.78 78.01
  Q 565.70 83.39 555.68 84.02
  C 551.71 84.27 547.86 80.84 544.68 84.96
  Q 544.37 85.37 543.85 85.46
  C 538.11 86.43 531.83 85.44 527.16 85.51
  C 514.39 85.69 501.39 85.04 488.95 85.26
  C 479.10 85.43 469.29 85.24 459.45 85.52
  Q 455.25 85.64 451.08 84.94
  C 448.25 84.47 445.44 84.57 442.62 84.14
  Q 438.67 83.52 436.32 83.40
  C 428.67 82.99 422.60 81.06 416.54 76.06
  Q 416.16 75.74 415.66 75.76
  L 413.94 75.84"
/>
<path stroke="#77797b" vector-effect="non-scaling-stroke" d="
  M 453.95 70.74
  Q 454.00 71.38 454.51 71.45
  C 458.74 71.96 463.14 71.11 466.82 71.25
  Q 478.44 71.69 489.89 71.81
  A 1.27 1.27 0.0 0 0 491.15 70.27
  L 490.27 66.27
  A 0.96 0.94 9.2 0 0 489.82 65.66
  Q 486.67 63.85 483.22 64.78
  A 0.98 0.97 -6.3 0 1 481.99 63.80
  C 482.09 61.50 482.47 60.23 485.11 60.16
  Q 493.38 59.94 501.60 61.19
  C 503.74 61.52 504.69 62.59 504.44 64.75
  Q 504.41 65.02 504.14 65.06
  L 500.36 65.67
  A 0.83 0.83 0.0 0 0 499.68 66.35
  Q 499.05 70.08 500.26 73.58
  Q 500.44 74.10 500.99 74.17
  C 511.79 75.38 522.92 74.48 533.98 74.10
  A 2.06 2.04 -82.1 0 0 535.86 72.67
  Q 536.80 69.69 536.11 66.83
  Q 536.00 66.36 535.59 66.11
  Q 533.17 64.61 530.52 65.24
  Q 530.00 65.37 529.58 65.03
  Q 528.36 64.06 528.04 62.42"
/>
<path stroke="#4e555d" vector-effect="non-scaling-stroke" d="
  M 528.04 62.42
  L 526.28 56.43"
/>
<path stroke="#c6a664" vector-effect="non-scaling-stroke" d="
  M 711.69 12.10
  Q 710.56 14.29 705.10 14.50"
/>
<path stroke="#c3a14f" vector-effect="non-scaling-stroke" d="
  M 705.10 14.50
  C 681.91 12.67 662.46 13.41 642.42 12.39
  Q 628.96 11.71 615.17 12.40"
/>
<path stroke="#c89917" vector-effect="non-scaling-stroke" d="
  M 705.10 14.50
  L 713.00 15.90
  A 1.02 1.02 0.0 0 1 713.81 16.64
  L 716.06 24.86
  Q 716.17 25.27 716.58 25.38
  Q 717.60 25.66 717.85 26.56
  C 718.76 29.78 719.08 28.75 721.22 30.49
  C 724.74 33.37 727.08 35.58 727.29 40.41
  A 0.76 0.75 -84.2 0 0 727.85 41.10
  Q 731.41 42.02 732.21 43.80
  C 734.33 48.54 736.71 53.26 737.99 58.32
  Q 738.52 60.43 740.84 61.20
  Q 741.31 61.35 741.37 61.84
  L 742.93 73.10
  A 1.11 1.11 0.0 0 0 743.97 74.06
  Q 745.42 74.16 746.09 75.37
  A 0.88 0.85 -4.1 0 0 746.58 75.78
  C 749.07 76.63 753.69 76.05 755.62 77.47
  Q 756.00 77.75 756.47 77.79
  Q 758.31 77.98 759.03 80.00
  C 760.60 84.33 761.58 87.17 756.32 88.95"
/>
<path stroke="#c3a14f" vector-effect="non-scaling-stroke" d="
  M 756.32 88.95
  C 746.89 90.74 737.60 89.95 728.62 89.87
  C 713.01 89.73 697.42 89.37 681.80 89.81
  C 671.08 90.12 659.64 89.25 649.27 88.82
  C 645.14 88.65 639.56 87.23 634.50 87.79
  Q 633.63 87.89 633.04 87.51
  Q 632.65 87.25 632.17 87.21
  Q 620.56 86.28 605.75 82.71
  C 598.31 80.92 593.47 76.82 594.67 68.67
  Q 596.33 57.47 597.40 52.73
  Q 598.28 48.81 596.94 46.75"
/>
<path stroke="#c6a664" vector-effect="non-scaling-stroke" d="
  M 761.96 89.74
  Q 762.00 87.11 756.32 88.95"
/>
<path stroke="#6f7478" vector-effect="non-scaling-stroke" d="
  M 80.35 46.37
  L 87.54 50.68"
/>
<path stroke="#555b62" vector-effect="non-scaling-stroke" d="
  M 87.54 50.68
  Q 94.31 53.75 98.75 54.22
  Q 106.75 55.05 115.60 57.39
  A 1.29 1.29 0.0 0 1 116.56 58.72
  Q 116.47 60.33 114.56 60.11
  Q 108.49 59.43 102.47 58.42
  C 96.85 57.47 94.51 54.49 88.23 56.74
  Q 87.74 56.91 87.22 56.83
  Q 81.86 55.96 76.61 57.22
  Q 76.05 57.35 75.93 57.91
  Q 74.51 64.68 77.08 70.97
  Q 77.26 71.44 77.75 71.58
  C 83.12 73.13 89.85 71.98 94.51 71.95
  Q 95.01 71.95 95.44 71.68
  Q 99.15 69.37 103.23 70.25
  C 114.85 72.76 137.16 72.62 144.81 61.67
  Q 145.11 61.24 145.11 60.72
  C 145.29 50.00 133.41 47.04 125.10 46.83
  Q 124.60 46.81 124.20 46.53
  C 120.34 43.79 116.28 41.61 111.54 42.53
  C 110.00 42.82 105.57 42.93 105.74 40.43
  A 1.09 1.08 -7.3 0 1 106.48 39.48
  Q 116.99 35.93 125.09 43.17
  A 1.12 1.08 64.3 0 0 125.88 43.46
  L 141.23 42.89
  A 1.81 1.80 9.0 0 0 142.85 41.72
  L 146.62 31.71"
/>
<path stroke="#41474a" vector-effect="non-scaling-stroke" d="
  M 146.62 31.71
  Q 147.12 30.97 146.99 29.56
  A 1.23 1.20 18.4 0 0 146.56 28.73
  C 139.86 23.25 129.44 23.58 121.71 26.04
  A 1.80 1.80 0.0 0 1 120.76 26.08
  C 114.49 24.65 108.59 25.36 102.96 25.58
  Q 90.92 26.03 79.27 29.35
  A 1.41 1.41 0.0 0 0 78.48 29.92
  C 77.04 32.05 75.44 33.56 75.24 36.18
  Q 74.76 42.46 80.35 46.37"
/>
<path stroke="#676967" vector-effect="non-scaling-stroke" d="
  M 146.62 31.71
  Q 145.33 29.61 142.67 29.13"
/>
<path stroke="#82817d" vector-effect="non-scaling-stroke" d="
  M 142.67 29.13
  Q 134.46 27.79 125.83 28.98
  Q 125.35 29.05 125.00 29.39
  L 123.35 30.99
  A 1.01 1.01 0.0 0 1 122.34 31.24
  Q 114.12 28.76 109.49 29.49
  C 102.06 30.66 93.14 29.66 83.97 33.15
  C 81.27 34.18 75.67 37.61 77.30 41.24
  Q 78.14 43.12 80.35 46.37"
/>
<path stroke="#969695" vector-effect="non-scaling-stroke" d="
  M 142.67 29.13
  L 144.59 30.57
  Q 145.01 30.88 145.00 31.41
  Q 144.99 32.47 144.40 33.28
  Q 144.10 33.71 144.01 34.22
  Q 143.58 36.86 140.99 37.67
  Q 140.51 37.82 140.20 38.22
  C 139.47 39.16 138.89 39.56 137.63 39.66
  Q 131.83 40.09 126.03 39.85
  C 123.50 39.75 121.62 38.48 119.51 37.27
  C 117.02 35.84 114.84 36.02 112.13 35.44
  Q 111.63 35.33 111.14 35.47
  L 107.98 36.38
  Q 107.51 36.52 107.21 36.90
  Q 106.34 38.04 104.28 39.53
  C 102.66 40.71 103.71 42.86 105.40 43.44
  C 109.95 45.01 114.64 44.40 118.81 45.77
  C 122.78 47.08 126.12 49.07 130.33 50.01
  C 135.99 51.26 141.29 52.12 143.81 57.77
  Q 144.05 58.30 143.83 58.83
  C 140.30 67.60 127.65 68.28 119.71 68.52
  C 113.53 68.70 109.08 69.41 102.39 67.12
  A 0.80 0.79 28.6 0 0 101.50 67.38
  Q 100.79 68.27 99.61 68.00
  Q 99.11 67.89 98.70 67.57
  Q 98.26 67.23 97.70 67.07
  Q 97.16 66.92 97.05 67.46
  Q 96.56 69.89 94.35 70.25
  Q 93.90 70.33 93.69 69.93
  Q 93.16 68.93 92.25 69.06
  C 90.26 69.33 87.38 68.41 86.43 68.99
  Q 86.04 69.23 85.59 69.26
  L 79.12 69.68
  A 0.65 0.64 77.6 0 1 78.48 69.26
  Q 76.76 64.79 77.33 60.03
  Q 77.39 59.52 77.87 59.35
  C 82.17 57.80 86.76 58.09 91.20 57.89
  Q 95.88 57.68 100.22 59.49
  C 104.97 61.48 116.08 65.02 120.31 60.02
  A 0.82 0.81 -50.2 0 0 120.21 58.87
  L 116.71 56.00
  Q 116.27 55.64 115.71 55.73
  Q 111.75 56.40 108.78 54.00
  Q 108.34 53.65 107.81 53.48
  Q 106.01 52.93 104.27 53.52
  A 1.53 1.49 -42.5 0 1 103.27 53.49
  Q 100.37 52.39 97.19 52.56
  Q 96.67 52.59 96.22 52.33
  Q 91.89 49.90 87.54 50.68"
/>
<path stroke="#82620d" vector-effect="non-scaling-stroke" d="
  M 350.05 61.33
  C 349.92 60.36 349.39 59.97 348.39 59.82
  Q 346.07 59.47 343.88 58.55
  Q 343.40 58.35 342.89 58.38
  Q 339.34 58.53 337.36 54.85
  Q 335.11 50.69 329.54 46.48
  Q 327.46 44.92 323.49 38.28
  C 322.42 36.49 320.73 35.12 319.34 33.16
  Q 317.17 30.10 312.74 27.39
  Q 312.31 27.12 311.80 27.13
  C 304.06 27.30 296.60 25.99 288.81 26.38
  C 280.75 26.79 274.49 40.39 272.21 46.61
  Q 270.02 52.61 265.98 57.69
  A 0.89 0.87 -73.3 0 1 265.39 58.02
  L 257.29 58.85
  A 1.12 1.11 -0.0 0 0 256.30 59.83
  Q 255.82 64.12 257.83 67.91
  Q 258.10 68.41 258.66 68.42
  C 268.65 68.75 278.71 67.61 288.47 67.89
  Q 294.07 68.06 299.69 68.27
  Q 300.38 68.30 300.34 67.61
  L 300.01 60.89
  Q 299.98 60.22 299.35 59.98
  C 296.12 58.71 292.48 58.27 290.92 56.11
  A 1.56 1.56 0.0 0 1 292.24 53.63
  L 310.92 54.24
  A 1.37 1.36 -7.7 0 1 312.16 55.18
  Q 312.99 57.76 311.14 59.41
  A 0.91 0.90 32.5 0 1 310.27 59.60
  C 307.91 58.89 307.14 60.25 307.68 62.40
  Q 308.41 65.33 308.58 68.11
  A 0.84 0.83 -1.1 0 0 309.41 68.90
  L 349.48 69.49
  Q 349.98 69.50 350.21 69.05
  Q 352.06 65.50 350.28 62.08
  A 2.32 2.16 -64.0 0 1 350.05 61.33"
/>
<path stroke="#8e6d19" vector-effect="non-scaling-stroke" d="
  M 654.74 42.63
  C 654.80 48.73 653.15 55.46 652.59 61.17
  A 1.15 1.15 0.0 0 1 651.29 62.20
  Q 646.08 61.53 640.99 62.85
  A 0.92 0.92 0.0 0 0 640.30 63.75
  L 640.40 72.30
  Q 640.40 72.82 640.90 72.97
  C 654.34 77.01 667.45 74.90 681.29 75.44
  C 690.13 75.79 724.01 76.19 726.79 64.51
  Q 728.78 56.16 725.88 46.19
  C 724.43 41.19 706.33 34.98 701.59 35.11
  C 696.51 35.24 691.71 33.43 686.94 33.41
  C 679.03 33.37 671.22 32.75 663.34 32.51
  C 656.18 32.30 650.60 31.65 641.85 32.95
  Q 641.38 33.02 641.36 33.49
  Q 641.20 37.22 642.70 40.57
  A 1.13 1.12 80.4 0 0 643.62 41.23
  L 654.38 42.24
  Q 654.74 42.28 654.74 42.63"
/>
<path stroke="#8a6b23" vector-effect="non-scaling-stroke" d="
  M 297.82 45.38
  L 303.38 45.18
  A 0.30 0.30 0.0 0 0 303.67 44.87
  L 303.64 43.99
  A 3.78 3.08 87.9 0 0 300.42 40.32
  L 300.42 40.32
  A 3.78 3.08 87.9 0 0 297.48 44.21
  L 297.51 45.09
  A 0.30 0.30 0.0 0 0 297.82 45.38"
/>
<path stroke="#82817d" vector-effect="non-scaling-stroke" d="
  M 489.48 46.87
  Q 487.10 48.96 486.34 51.97
  Q 486.02 53.23 487.32 53.17
  L 495.92 52.80
  A 0.72 0.72 0.0 0 0 496.42 51.60
  L 492.19 47.01
  A 1.95 1.94 -41.9 0 0 489.48 46.87"
/>
<path stroke="#8a6918" vector-effect="non-scaling-stroke" d="
  M 677.81 45.15
  L 677.55 60.29
  A 2.90 2.90 0.0 0 0 680.40 63.24
  L 684.10 63.30
  A 15.22 9.46 1.0 0 0 699.48 54.11
  L 699.52 52.09
  A 15.22 9.46 1.0 0 0 684.46 42.37
  L 680.76 42.30
  A 2.90 2.90 0.0 0 0 677.81 45.15"
/>
</g>
<path fill="#bd947c" d="
  M 366.08 6.53
  Q 364.64 7.99 362.24 7.56
  C 345.03 4.45 325.46 5.19 307.74 5.48
  C 289.78 5.77 273.39 5.63 256.22 5.52
  Q 254.96 5.51 248.45 6.05
  Q 243.46 6.47 238.24 5.35
  Q 249.75 1.98 255.82 2.00
  C 278.10 2.07 300.44 1.93 322.72 2.59
  C 328.29 2.75 334.10 2.50 339.33 2.79
  Q 349.76 3.36 360.15 4.25
  C 362.28 4.43 364.06 5.78 366.08 6.53
  Z"
/>
<path fill="#2e3945" d="
  M 166.48 3.83
  L 166.15 4.02
  A 0.24 0.24 0.0 0 0 166.26 4.47
  L 182.28 5.56
  L 188.51 6.36
  Q 188.12 6.60 187.47 6.43
  Q 187.08 6.33 187.13 6.73
  Q 187.18 7.21 187.48 7.45
  Q 187.70 7.63 188.18 7.65
  C 192.72 7.87 202.66 13.59 202.53 17.50
  C 202.29 24.71 200.70 34.76 197.29 42.78
  Q 196.97 43.53 198.22 43.68
  Q 195.10 53.75 193.53 64.03
  Q 193.22 63.80 192.95 63.75
  A 0.36 0.35 -78.5 0 0 192.55 64.02
  L 190.79 71.70
  A 0.74 0.72 81.7 0 1 190.44 72.18
  C 186.92 74.23 184.11 76.95 180.20 78.33
  Q 177.72 79.21 175.35 80.35
  C 170.72 82.57 164.58 83.41 159.49 83.31
  Q 131.00 82.79 102.56 84.23
  C 96.30 84.55 90.43 84.50 84.33 84.49
  C 75.02 84.46 64.05 85.53 53.79 84.97
  C 50.03 84.76 45.90 83.36 41.80 82.99
  Q 39.74 82.80 34.25 79.48
  C 31.13 77.58 29.78 74.81 27.78 71.87
  C 26.78 69.59 25.67 67.60 25.79 64.92
  Q 26.08 58.63 23.91 52.76
  Q 23.14 50.67 23.05 48.44
  C 22.92 45.01 21.71 41.84 21.83 38.49
  C 21.95 34.82 20.62 32.10 20.54 28.64
  C 20.48 26.04 19.55 23.67 20.04 20.90
  Q 20.12 20.41 20.52 20.10
  C 21.94 18.97 21.97 17.54 22.94 16.34
  C 27.76 10.38 35.61 8.62 42.78 6.99
  Q 47.84 5.85 54.44 5.54
  Q 72.62 4.69 90.82 4.71
  C 102.43 4.72 114.57 3.97 126.50 3.92
  C 140.53 3.87 153.17 3.55 166.48 3.83
  Z
  M 80.35 46.37
  L 87.54 50.68
  Q 94.31 53.75 98.75 54.22
  Q 106.75 55.05 115.60 57.39
  A 1.29 1.29 0.0 0 1 116.56 58.72
  Q 116.47 60.33 114.56 60.11
  Q 108.49 59.43 102.47 58.42
  C 96.85 57.47 94.51 54.49 88.23 56.74
  Q 87.74 56.91 87.22 56.83
  Q 81.86 55.96 76.61 57.22
  Q 76.05 57.35 75.93 57.91
  Q 74.51 64.68 77.08 70.97
  Q 77.26 71.44 77.75 71.58
  C 83.12 73.13 89.85 71.98 94.51 71.95
  Q 95.01 71.95 95.44 71.68
  Q 99.15 69.37 103.23 70.25
  C 114.85 72.76 137.16 72.62 144.81 61.67
  Q 145.11 61.24 145.11 60.72
  C 145.29 50.00 133.41 47.04 125.10 46.83
  Q 124.60 46.81 124.20 46.53
  C 120.34 43.79 116.28 41.61 111.54 42.53
  C 110.00 42.82 105.57 42.93 105.74 40.43
  A 1.09 1.08 -7.3 0 1 106.48 39.48
  Q 116.99 35.93 125.09 43.17
  A 1.12 1.08 64.3 0 0 125.88 43.46
  L 141.23 42.89
  A 1.81 1.80 9.0 0 0 142.85 41.72
  L 146.62 31.71
  Q 147.12 30.97 146.99 29.56
  A 1.23 1.20 18.4 0 0 146.56 28.73
  C 139.86 23.25 129.44 23.58 121.71 26.04
  A 1.80 1.80 0.0 0 1 120.76 26.08
  C 114.49 24.65 108.59 25.36 102.96 25.58
  Q 90.92 26.03 79.27 29.35
  A 1.41 1.41 0.0 0 0 78.48 29.92
  C 77.04 32.05 75.44 33.56 75.24 36.18
  Q 74.76 42.46 80.35 46.37
  Z"
/>
<path fill="#53544f" d="
  M 166.48 3.83
  Q 174.38 3.38 182.28 5.56
  L 166.26 4.47
  A 0.24 0.24 0.0 0 1 166.15 4.02
  L 166.48 3.83
  Z"
/>
<path fill="#bc8b00" d="
  M 238.24 5.35
  Q 243.46 6.47 248.45 6.05
  Q 254.96 5.51 256.22 5.52
  C 273.39 5.63 289.78 5.77 307.74 5.48
  C 325.46 5.19 345.03 4.45 362.24 7.56
  Q 364.64 7.99 366.08 6.53
  C 368.93 7.23 371.78 7.60 374.35 9.14
  Q 378.21 11.47 382.10 13.97
  A 1.73 1.71 4.1 0 1 382.73 14.69
  Q 386.90 23.50 388.04 33.67
  Q 385.85 34.28 386.47 38.27
  Q 386.69 39.64 386.46 41.25
  C 386.11 43.78 387.07 47.08 387.12 48.74
  Q 387.46 59.12 387.98 69.50
  Q 388.15 72.88 387.68 76.22
  C 387.56 77.12 387.01 77.73 386.10 77.78
  Q 385.64 77.81 385.22 78.01
  C 378.53 81.32 372.26 83.01 364.92 84.21
  C 360.45 84.94 356.60 83.51 351.82 84.31
  Q 347.54 85.02 343.17 84.34
  Q 342.75 84.27 342.75 83.85
  Q 342.75 83.71 342.75 83.57
  Q 342.74 83.09 342.26 83.07
  C 331.70 82.64 319.38 84.06 310.94 84.12
  Q 300.51 84.19 290.10 83.74
  C 277.07 83.18 264.47 83.35 251.65 82.78
  C 241.61 82.34 232.42 84.64 223.02 79.70
  C 219.43 77.81 214.70 77.44 210.66 76.07
  Q 208.53 73.37 209.43 68.02
  Q 209.04 68.89 210.59 68.56
  Q 210.98 68.47 210.97 68.08
  Q 210.94 59.21 213.63 50.78
  A 0.45 0.30 85.9 0 0 213.17 50.19
  Q 213.04 50.33 212.27 49.99
  C 213.01 47.31 213.61 45.18 213.70 42.18
  C 213.90 35.72 218.77 30.19 219.34 23.83
  C 219.80 18.61 220.89 14.25 225.40 11.47
  Q 227.64 10.09 229.42 8.10
  Q 229.76 7.73 230.25 7.76
  Q 235.23 8.04 238.24 5.35
  Z
  M 350.05 61.33
  C 349.92 60.36 349.39 59.97 348.39 59.82
  Q 346.07 59.47 343.88 58.55
  Q 343.40 58.35 342.89 58.38
  Q 339.34 58.53 337.36 54.85
  Q 335.11 50.69 329.54 46.48
  Q 327.46 44.92 323.49 38.28
  C 322.42 36.49 320.73 35.12 319.34 33.16
  Q 317.17 30.10 312.74 27.39
  Q 312.31 27.12 311.80 27.13
  C 304.06 27.30 296.60 25.99 288.81 26.38
  C 280.75 26.79 274.49 40.39 272.21 46.61
  Q 270.02 52.61 265.98 57.69
  A 0.89 0.87 -73.3 0 1 265.39 58.02
  L 257.29 58.85
  A 1.12 1.11 -0.0 0 0 256.30 59.83
  Q 255.82 64.12 257.83 67.91
  Q 258.10 68.41 258.66 68.42
  C 268.65 68.75 278.71 67.61 288.47 67.89
  Q 294.07 68.06 299.69 68.27
  Q 300.38 68.30 300.34 67.61
  L 300.01 60.89
  Q 299.98 60.22 299.35 59.98
  C 296.12 58.71 292.48 58.27 290.92 56.11
  A 1.56 1.56 0.0 0 1 292.24 53.63
  L 310.92 54.24
  A 1.37 1.36 -7.7 0 1 312.16 55.18
  Q 312.99 57.76 311.14 59.41
  A 0.91 0.90 32.5 0 1 310.27 59.60
  C 307.91 58.89 307.14 60.25 307.68 62.40
  Q 308.41 65.33 308.58 68.11
  A 0.84 0.83 -1.1 0 0 309.41 68.90
  L 349.48 69.49
  Q 349.98 69.50 350.21 69.05
  Q 352.06 65.50 350.28 62.08
  A 2.32 2.16 -64.0 0 1 350.05 61.33
  Z"
/>
<path fill="#2e3945" d="
  M 551.52 8.06
  L 544.53 8.26
  Q 543.18 8.29 544.47 8.70
  L 545.01 8.88
  Q 545.45 9.01 545.41 9.47
  C 545.29 11.17 545.94 13.00 547.57 13.83
  C 550.79 15.47 550.78 20.60 553.38 23.56
  Q 554.52 24.86 555.72 26.12
  C 557.32 27.80 557.40 30.62 561.03 29.96
  A 0.83 0.81 68.7 0 1 561.89 30.35
  C 563.73 33.46 571.22 37.28 566.08 41.33
  C 560.79 45.49 563.10 48.70 563.26 54.10
  A 1.31 1.28 -26.0 0 1 562.94 55.00
  C 560.00 58.42 556.32 62.09 556.19 66.13
  A 0.39 0.38 -86.6 0 1 555.77 66.51
  Q 555.61 66.50 555.47 66.50
  Q 554.81 66.48 554.73 67.14
  C 553.98 73.61 546.58 70.47 543.66 68.25
  Q 542.56 67.41 541.54 65.19
  C 540.10 62.05 538.62 60.62 535.04 59.58
  Q 530.50 58.27 526.28 56.43
  Q 524.19 54.14 522.38 51.84
  C 518.77 47.24 514.58 43.24 510.92 38.70
  Q 508.44 35.62 506.13 34.43
  Q 500.80 31.68 494.73 32.43
  L 478.28 31.56
  Q 477.81 31.54 477.54 31.94
  Q 469.70 43.56 466.58 51.33
  C 464.95 55.38 463.37 58.50 462.40 61.47
  C 461.11 65.45 457.75 65.09 454.45 64.28
  Q 453.84 64.14 453.85 64.76
  L 453.95 70.74
  Q 453.44 71.55 453.50 72.29
  A 0.96 0.95 87.7 0 0 454.44 73.16
  L 488.55 73.51
  Q 488.68 73.51 488.59 73.60
  Q 485.03 77.18 480.52 75.46
  Q 475.65 73.60 471.29 74.61
  Q 470.76 74.74 470.93 75.26
  Q 471.13 75.83 470.78 76.24
  C 468.85 78.56 467.86 80.05 464.60 80.10
  Q 464.12 80.11 463.75 80.43
  C 459.94 83.66 451.27 80.65 447.46 82.80
  Q 446.94 83.10 446.40 82.84
  L 440.71 80.13
  Q 440.49 80.02 440.50 79.78
  Q 440.50 79.53 440.50 79.30
  Q 440.49 78.93 440.13 78.87
  C 437.88 78.51 434.41 77.94 433.06 75.91
  A 1.02 1.02 0.0 0 0 432.26 75.47
  Q 430.82 75.40 429.85 74.43
  Q 429.46 74.04 428.93 73.89
  Q 421.64 71.78 415.72 67.01
  Q 415.30 66.67 414.75 66.65
  L 410.76 66.51
  L 407.16 50.27
  Q 407.55 50.99 408.16 50.28
  A 0.48 0.46 -36.9 0 0 408.24 49.78
  Q 405.63 43.67 405.40 37.41
  C 405.34 35.55 404.51 33.64 403.88 31.96
  Q 403.68 31.44 403.27 31.82
  Q 403.08 32.00 402.97 32.26
  C 401.68 25.71 398.43 17.20 406.35 13.33
  C 415.23 8.99 422.33 5.65 432.25 5.71
  Q 474.13 5.97 516.00 6.28
  C 521.66 6.32 527.88 7.66 533.44 7.76
  Q 542.46 7.94 551.52 8.06
  Z"
/>
<path fill="#53544f" d="
  M 188.51 6.36
  C 198.57 9.08 205.44 12.35 204.24 24.51
  Q 203.23 34.80 198.22 43.68
  Q 196.97 43.53 197.29 42.78
  C 200.70 34.76 202.29 24.71 202.53 17.50
  C 202.66 13.59 192.72 7.87 188.18 7.65
  Q 187.70 7.63 187.48 7.45
  Q 187.18 7.21 187.13 6.73
  Q 187.08 6.33 187.47 6.43
  Q 188.12 6.60 188.51 6.36
  Z"
/>
<path fill="#3d434b" d="
  M 551.52 8.06
  C 560.29 8.48 589.68 13.86 585.75 28.17
  Q 584.96 31.08 584.84 32.47
  C 584.39 37.59 582.46 42.23 581.80 47.05
  Q 580.95 53.18 579.28 59.08
  C 577.03 63.14 576.83 66.17 575.70 70.53
  C 575.19 72.52 574.97 76.35 572.78 78.01
  Q 565.70 83.39 555.68 84.02
  C 551.71 84.27 547.86 80.84 544.68 84.96
  Q 544.37 85.37 543.85 85.46
  C 538.11 86.43 531.83 85.44 527.16 85.51
  C 514.39 85.69 501.39 85.04 488.95 85.26
  C 479.10 85.43 469.29 85.24 459.45 85.52
  Q 455.25 85.64 451.08 84.94
  C 448.25 84.47 445.44 84.57 442.62 84.14
  Q 438.67 83.52 436.32 83.40
  C 428.67 82.99 422.60 81.06 416.54 76.06
  Q 416.16 75.74 415.66 75.76
  L 413.94 75.84
  Q 410.88 71.54 410.76 66.51
  L 414.75 66.65
  Q 415.30 66.67 415.72 67.01
  Q 421.64 71.78 428.93 73.89
  Q 429.46 74.04 429.85 74.43
  Q 430.82 75.40 432.26 75.47
  A 1.02 1.02 0.0 0 1 433.06 75.91
  C 434.41 77.94 437.88 78.51 440.13 78.87
  Q 440.49 78.93 440.50 79.30
  Q 440.50 79.53 440.50 79.78
  Q 440.49 80.02 440.71 80.13
  L 446.40 82.84
  Q 446.94 83.10 447.46 82.80
  C 451.27 80.65 459.94 83.66 463.75 80.43
  Q 464.12 80.11 464.60 80.10
  C 467.86 80.05 468.85 78.56 470.78 76.24
  Q 471.13 75.83 470.93 75.26
  Q 470.76 74.74 471.29 74.61
  Q 475.65 73.60 480.52 75.46
  Q 485.03 77.18 488.59 73.60
  Q 488.68 73.51 488.55 73.51
  L 454.44 73.16
  A 0.96 0.95 87.7 0 1 453.50 72.29
  Q 453.44 71.55 453.95 70.74
  Q 454.00 71.38 454.51 71.45
  C 458.74 71.96 463.14 71.11 466.82 71.25
  Q 478.44 71.69 489.89 71.81
  A 1.27 1.27 0.0 0 0 491.15 70.27
  L 490.27 66.27
  A 0.96 0.94 9.2 0 0 489.82 65.66
  Q 486.67 63.85 483.22 64.78
  A 0.98 0.97 -6.3 0 1 481.99 63.80
  C 482.09 61.50 482.47 60.23 485.11 60.16
  Q 493.38 59.94 501.60 61.19
  C 503.74 61.52 504.69 62.59 504.44 64.75
  Q 504.41 65.02 504.14 65.06
  L 500.36 65.67
  A 0.83 0.83 0.0 0 0 499.68 66.35
  Q 499.05 70.08 500.26 73.58
  Q 500.44 74.10 500.99 74.17
  C 511.79 75.38 522.92 74.48 533.98 74.10
  A 2.06 2.04 -82.1 0 0 535.86 72.67
  Q 536.80 69.69 536.11 66.83
  Q 536.00 66.36 535.59 66.11
  Q 533.17 64.61 530.52 65.24
  Q 530.00 65.37 529.58 65.03
  Q 528.36 64.06 528.04 62.42
  L 526.28 56.43
  Q 530.50 58.27 535.04 59.58
  C 538.62 60.62 540.10 62.05 541.54 65.19
  Q 542.56 67.41 543.66 68.25
  C 546.58 70.47 553.98 73.61 554.73 67.14
  Q 554.81 66.48 555.47 66.50
  Q 555.61 66.50 555.77 66.51
  A 0.39 0.38 -86.6 0 0 556.19 66.13
  C 556.32 62.09 560.00 58.42 562.94 55.00
  A 1.31 1.28 -26.0 0 0 563.26 54.10
  C 563.10 48.70 560.79 45.49 566.08 41.33
  C 571.22 37.28 563.73 33.46 561.89 30.35
  A 0.83 0.81 68.7 0 0 561.03 29.96
  C 557.40 30.62 557.32 27.80 555.72 26.12
  Q 554.52 24.86 553.38 23.56
  C 550.78 20.60 550.79 15.47 547.57 13.83
  C 545.94 13.00 545.29 11.17 545.41 9.47
  Q 545.45 9.01 545.01 8.88
  L 544.47 8.70
  Q 543.18 8.29 544.53 8.26
  L 551.52 8.06
  Z"
/>
<path fill="#c1ae9b" d="
  M 711.69 12.10
  Q 710.56 14.29 705.10 14.50
  C 681.91 12.67 662.46 13.41 642.42 12.39
  Q 628.96 11.71 615.17 12.40
  Q 617.16 8.80 622.69 8.69
  Q 648.89 8.15 675.02 9.93
  C 686.51 10.71 699.43 11.00 711.69 12.10
  Z"
/>
<path fill="#c59402" d="
  M 615.17 12.40
  Q 628.96 11.71 642.42 12.39
  C 662.46 13.41 681.91 12.67 705.10 14.50
  L 713.00 15.90
  A 1.02 1.02 0.0 0 1 713.81 16.64
  L 716.06 24.86
  Q 716.17 25.27 716.58 25.38
  Q 717.60 25.66 717.85 26.56
  C 718.76 29.78 719.08 28.75 721.22 30.49
  C 724.74 33.37 727.08 35.58 727.29 40.41
  A 0.76 0.75 -84.2 0 0 727.85 41.10
  Q 731.41 42.02 732.21 43.80
  C 734.33 48.54 736.71 53.26 737.99 58.32
  Q 738.52 60.43 740.84 61.20
  Q 741.31 61.35 741.37 61.84
  L 742.93 73.10
  A 1.11 1.11 0.0 0 0 743.97 74.06
  Q 745.42 74.16 746.09 75.37
  A 0.88 0.85 -4.1 0 0 746.58 75.78
  C 749.07 76.63 753.69 76.05 755.62 77.47
  Q 756.00 77.75 756.47 77.79
  Q 758.31 77.98 759.03 80.00
  C 760.60 84.33 761.58 87.17 756.32 88.95
  C 746.89 90.74 737.60 89.95 728.62 89.87
  C 713.01 89.73 697.42 89.37 681.80 89.81
  C 671.08 90.12 659.64 89.25 649.27 88.82
  C 645.14 88.65 639.56 87.23 634.50 87.79
  Q 633.63 87.89 633.04 87.51
  Q 632.65 87.25 632.17 87.21
  Q 620.56 86.28 605.75 82.71
  C 598.31 80.92 593.47 76.82 594.67 68.67
  Q 596.33 57.47 597.40 52.73
  Q 598.28 48.81 596.94 46.75
  Q 597.12 42.59 600.03 38.88
  Q 600.39 38.43 600.32 37.86
  L 599.43 30.60
  A 0.61 0.54 55.8 0 1 599.47 30.30
  C 600.94 26.93 601.36 22.63 602.80 19.97
  Q 606.47 13.15 615.17 12.40
  Z
  M 654.74 42.63
  C 654.80 48.73 653.15 55.46 652.59 61.17
  A 1.15 1.15 0.0 0 1 651.29 62.20
  Q 646.08 61.53 640.99 62.85
  A 0.92 0.92 0.0 0 0 640.30 63.75
  L 640.40 72.30
  Q 640.40 72.82 640.90 72.97
  C 654.34 77.01 667.45 74.90 681.29 75.44
  C 690.13 75.79 724.01 76.19 726.79 64.51
  Q 728.78 56.16 725.88 46.19
  C 724.43 41.19 706.33 34.98 701.59 35.11
  C 696.51 35.24 691.71 33.43 686.94 33.41
  C 679.03 33.37 671.22 32.75 663.34 32.51
  C 656.18 32.30 650.60 31.65 641.85 32.95
  Q 641.38 33.02 641.36 33.49
  Q 641.20 37.22 642.70 40.57
  A 1.13 1.12 80.4 0 0 643.62 41.23
  L 654.38 42.24
  Q 654.74 42.28 654.74 42.63
  Z"
/>
<path fill="#cb9e2c" d="
  M 711.69 12.10
  Q 728.94 12.57 746.25 16.77
  C 754.30 18.72 761.09 25.37 763.41 33.79
  C 765.09 39.86 767.08 45.65 768.37 51.83
  C 768.96 54.61 770.67 56.99 771.30 59.52
  Q 773.97 70.28 773.84 74.21
  Q 773.45 86.15 761.96 89.74
  Q 762.00 87.11 756.32 88.95
  C 761.58 87.17 760.60 84.33 759.03 80.00
  Q 758.31 77.98 756.47 77.79
  Q 756.00 77.75 755.62 77.47
  C 753.69 76.05 749.07 76.63 746.58 75.78
  A 0.88 0.85 -4.1 0 1 746.09 75.37
  Q 745.42 74.16 743.97 74.06
  A 1.11 1.11 0.0 0 1 742.93 73.10
  L 741.37 61.84
  Q 741.31 61.35 740.84 61.20
  Q 738.52 60.43 737.99 58.32
  C 736.71 53.26 734.33 48.54 732.21 43.80
  Q 731.41 42.02 727.85 41.10
  A 0.76 0.75 -84.2 0 1 727.29 40.41
  C 727.08 35.58 724.74 33.37 721.22 30.49
  C 719.08 28.75 718.76 29.78 717.85 26.56
  Q 717.60 25.66 716.58 25.38
  Q 716.17 25.27 716.06 24.86
  L 713.81 16.64
  A 1.02 1.02 0.0 0 0 713.00 15.90
  L 705.10 14.50
  Q 710.56 14.29 711.69 12.10
  Z"
/>
<path fill="#53544f" d="
  M 146.62 31.71
  Q 145.33 29.61 142.67 29.13
  Q 134.46 27.79 125.83 28.98
  Q 125.35 29.05 125.00 29.39
  L 123.35 30.99
  A 1.01 1.01 0.0 0 1 122.34 31.24
  Q 114.12 28.76 109.49 29.49
  C 102.06 30.66 93.14 29.66 83.97 33.15
  C 81.27 34.18 75.67 37.61 77.30 41.24
  Q 78.14 43.12 80.35 46.37
  Q 74.76 42.46 75.24 36.18
  C 75.44 33.56 77.04 32.05 78.48 29.92
  A 1.41 1.41 0.0 0 1 79.27 29.35
  Q 90.92 26.03 102.96 25.58
  C 108.59 25.36 114.49 24.65 120.76 26.08
  A 1.80 1.80 0.0 0 0 121.71 26.04
  C 129.44 23.58 139.86 23.25 146.56 28.73
  A 1.23 1.20 18.4 0 1 146.99 29.56
  Q 147.12 30.97 146.62 31.71
  Z"
/>
<path fill="#483819" d="
  M 350.28 62.08
  Q 352.06 65.50 350.21 69.05
  Q 349.98 69.50 349.48 69.49
  L 309.41 68.90
  A 0.84 0.83 -1.1 0 1 308.58 68.11
  Q 308.41 65.33 307.68 62.40
  C 307.14 60.25 307.91 58.89 310.27 59.60
  A 0.91 0.90 32.5 0 0 311.14 59.41
  Q 312.99 57.76 312.16 55.18
  A 1.37 1.36 -7.7 0 0 310.92 54.24
  L 292.24 53.63
  A 1.56 1.56 0.0 0 0 290.92 56.11
  C 292.48 58.27 296.12 58.71 299.35 59.98
  Q 299.98 60.22 300.01 60.89
  L 300.34 67.61
  Q 300.38 68.30 299.69 68.27
  Q 294.07 68.06 288.47 67.89
  C 278.71 67.61 268.65 68.75 258.66 68.42
  Q 258.10 68.41 257.83 67.91
  Q 255.82 64.12 256.30 59.83
  A 1.12 1.11 -0.0 0 1 257.29 58.85
  L 265.39 58.02
  A 0.89 0.87 -73.3 0 0 265.98 57.69
  Q 270.02 52.61 272.21 46.61
  C 274.49 40.39 280.75 26.79 288.81 26.38
  C 296.60 25.99 304.06 27.30 311.80 27.13
  Q 312.31 27.12 312.74 27.39
  Q 317.17 30.10 319.34 33.16
  C 320.73 35.12 322.42 36.49 323.49 38.28
  Q 327.46 44.92 329.54 46.48
  Q 335.11 50.69 337.36 54.85
  Q 339.34 58.53 342.89 58.38
  Q 343.40 58.35 343.88 58.55
  Q 346.07 59.47 348.39 59.82
  C 349.39 59.97 349.92 60.36 350.05 61.33
  A 2.32 2.16 -64.0 0 0 350.28 62.08
  Z
  M 297.82 45.38
  L 303.38 45.18
  A 0.30 0.30 0.0 0 0 303.67 44.87
  L 303.64 43.99
  A 3.78 3.08 87.9 0 0 300.42 40.32
  L 300.42 40.32
  A 3.78 3.08 87.9 0 0 297.48 44.21
  L 297.51 45.09
  A 0.30 0.30 0.0 0 0 297.82 45.38
  Z"
/>
<path fill="#b0aeab" d="
  M 142.67 29.13
  L 144.59 30.57
  Q 145.01 30.88 145.00 31.41
  Q 144.99 32.47 144.40 33.28
  Q 144.10 33.71 144.01 34.22
  Q 143.58 36.86 140.99 37.67
  Q 140.51 37.82 140.20 38.22
  C 139.47 39.16 138.89 39.56 137.63 39.66
  Q 131.83 40.09 126.03 39.85
  C 123.50 39.75 121.62 38.48 119.51 37.27
  C 117.02 35.84 114.84 36.02 112.13 35.44
  Q 111.63 35.33 111.14 35.47
  L 107.98 36.38
  Q 107.51 36.52 107.21 36.90
  Q 106.34 38.04 104.28 39.53
  C 102.66 40.71 103.71 42.86 105.40 43.44
  C 109.95 45.01 114.64 44.40 118.81 45.77
  C 122.78 47.08 126.12 49.07 130.33 50.01
  C 135.99 51.26 141.29 52.12 143.81 57.77
  Q 144.05 58.30 143.83 58.83
  C 140.30 67.60 127.65 68.28 119.71 68.52
  C 113.53 68.70 109.08 69.41 102.39 67.12
  A 0.80 0.79 28.6 0 0 101.50 67.38
  Q 100.79 68.27 99.61 68.00
  Q 99.11 67.89 98.70 67.57
  Q 98.26 67.23 97.70 67.07
  Q 97.16 66.92 97.05 67.46
  Q 96.56 69.89 94.35 70.25
  Q 93.90 70.33 93.69 69.93
  Q 93.16 68.93 92.25 69.06
  C 90.26 69.33 87.38 68.41 86.43 68.99
  Q 86.04 69.23 85.59 69.26
  L 79.12 69.68
  A 0.65 0.64 77.6 0 1 78.48 69.26
  Q 76.76 64.79 77.33 60.03
  Q 77.39 59.52 77.87 59.35
  C 82.17 57.80 86.76 58.09 91.20 57.89
  Q 95.88 57.68 100.22 59.49
  C 104.97 61.48 116.08 65.02 120.31 60.02
  A 0.82 0.81 -50.2 0 0 120.21 58.87
  L 116.71 56.00
  Q 116.27 55.64 115.71 55.73
  Q 111.75 56.40 108.78 54.00
  Q 108.34 53.65 107.81 53.48
  Q 106.01 52.93 104.27 53.52
  A 1.53 1.49 -42.5 0 1 103.27 53.49
  Q 100.37 52.39 97.19 52.56
  Q 96.67 52.59 96.22 52.33
  Q 91.89 49.90 87.54 50.68
  L 80.35 46.37
  Q 78.14 43.12 77.30 41.24
  C 75.67 37.61 81.27 34.18 83.97 33.15
  C 93.14 29.66 102.06 30.66 109.49 29.49
  Q 114.12 28.76 122.34 31.24
  A 1.01 1.01 0.0 0 0 123.35 30.99
  L 125.00 29.39
  Q 125.35 29.05 125.83 28.98
  Q 134.46 27.79 142.67 29.13
  Z"
/>
<path fill="#7b7d7e" d="
  M 142.67 29.13
  Q 145.33 29.61 146.62 31.71
  L 142.85 41.72
  A 1.81 1.80 9.0 0 1 141.23 42.89
  L 125.88 43.46
  A 1.12 1.08 64.3 0 1 125.09 43.17
  Q 116.99 35.93 106.48 39.48
  A 1.09 1.08 -7.3 0 0 105.74 40.43
  C 105.57 42.93 110.00 42.82 111.54 42.53
  C 116.28 41.61 120.34 43.79 124.20 46.53
  Q 124.60 46.81 125.10 46.83
  C 133.41 47.04 145.29 50.00 145.11 60.72
  Q 145.11 61.24 144.81 61.67
  C 137.16 72.62 114.85 72.76 103.23 70.25
  Q 99.15 69.37 95.44 71.68
  Q 95.01 71.95 94.51 71.95
  C 89.85 71.98 83.12 73.13 77.75 71.58
  Q 77.26 71.44 77.08 70.97
  Q 74.51 64.68 75.93 57.91
  Q 76.05 57.35 76.61 57.22
  Q 81.86 55.96 87.22 56.83
  Q 87.74 56.91 88.23 56.74
  C 94.51 54.49 96.85 57.47 102.47 58.42
  Q 108.49 59.43 114.56 60.11
  Q 116.47 60.33 116.56 58.72
  A 1.29 1.29 0.0 0 0 115.60 57.39
  Q 106.75 55.05 98.75 54.22
  Q 94.31 53.75 87.54 50.68
  Q 91.89 49.90 96.22 52.33
  Q 96.67 52.59 97.19 52.56
  Q 100.37 52.39 103.27 53.49
  A 1.53 1.49 -42.5 0 0 104.27 53.52
  Q 106.01 52.93 107.81 53.48
  Q 108.34 53.65 108.78 54.00
  Q 111.75 56.40 115.71 55.73
  Q 116.27 55.64 116.71 56.00
  L 120.21 58.87
  A 0.82 0.81 -50.2 0 1 120.31 60.02
  C 116.08 65.02 104.97 61.48 100.22 59.49
  Q 95.88 57.68 91.20 57.89
  C 86.76 58.09 82.17 57.80 77.87 59.35
  Q 77.39 59.52 77.33 60.03
  Q 76.76 64.79 78.48 69.26
  A 0.65 0.64 77.6 0 0 79.12 69.68
  L 85.59 69.26
  Q 86.04 69.23 86.43 68.99
  C 87.38 68.41 90.26 69.33 92.25 69.06
  Q 93.16 68.93 93.69 69.93
  Q 93.90 70.33 94.35 70.25
  Q 96.56 69.89 97.05 67.46
  Q 97.16 66.92 97.70 67.07
  Q 98.26 67.23 98.70 67.57
  Q 99.11 67.89 99.61 68.00
  Q 100.79 68.27 101.50 67.38
  A 0.80 0.79 28.6 0 1 102.39 67.12
  C 109.08 69.41 113.53 68.70 119.71 68.52
  C 127.65 68.28 140.30 67.60 143.83 58.83
  Q 144.05 58.30 143.81 57.77
  C 141.29 52.12 135.99 51.26 130.33 50.01
  C 126.12 49.07 122.78 47.08 118.81 45.77
  C 114.64 44.40 109.95 45.01 105.40 43.44
  C 103.71 42.86 102.66 40.71 104.28 39.53
  Q 106.34 38.04 107.21 36.90
  Q 107.51 36.52 107.98 36.38
  L 111.14 35.47
  Q 111.63 35.33 112.13 35.44
  C 114.84 36.02 117.02 35.84 119.51 37.27
  C 121.62 38.48 123.50 39.75 126.03 39.85
  Q 131.83 40.09 137.63 39.66
  C 138.89 39.56 139.47 39.16 140.20 38.22
  Q 140.51 37.82 140.99 37.67
  Q 143.58 36.86 144.01 34.22
  Q 144.10 33.71 144.40 33.28
  Q 144.99 32.47 145.00 31.41
  Q 145.01 30.88 144.59 30.57
  L 142.67 29.13
  Z"
/>
<path fill="#53544f" d="
  M 407.16 50.27
  C 404.39 45.63 404.07 39.68 402.97 32.26
  Q 403.08 32.00 403.27 31.82
  Q 403.68 31.44 403.88 31.96
  C 404.51 33.64 405.34 35.55 405.40 37.41
  Q 405.63 43.67 408.24 49.78
  A 0.48 0.46 -36.9 0 1 408.16 50.28
  Q 407.55 50.99 407.16 50.27
  Z"
/>
<path fill="#b0aeab" d="
  M 494.73 32.43
  C 501.73 33.23 504.79 33.42 509.41 39.17
  Q 518.75 50.79 528.04 62.42
  Q 528.36 64.06 529.58 65.03
  Q 530.00 65.37 530.52 65.24
  Q 533.17 64.61 535.59 66.11
  Q 536.00 66.36 536.11 66.83
  Q 536.80 69.69 535.86 72.67
  A 2.06 2.04 -82.1 0 1 533.98 74.10
  C 522.92 74.48 511.79 75.38 500.99 74.17
  Q 500.44 74.10 500.26 73.58
  Q 499.05 70.08 499.68 66.35
  A 0.83 0.83 0.0 0 1 500.36 65.67
  L 504.14 65.06
  Q 504.41 65.02 504.44 64.75
  C 504.69 62.59 503.74 61.52 501.60 61.19
  Q 493.38 59.94 485.11 60.16
  C 482.47 60.23 482.09 61.50 481.99 63.80
  A 0.98 0.97 -6.3 0 0 483.22 64.78
  Q 486.67 63.85 489.82 65.66
  A 0.96 0.94 9.2 0 1 490.27 66.27
  L 491.15 70.27
  A 1.27 1.27 0.0 0 1 489.89 71.81
  Q 478.44 71.69 466.82 71.25
  C 463.14 71.11 458.74 71.96 454.51 71.45
  Q 454.00 71.38 453.95 70.74
  L 453.85 64.76
  Q 453.84 64.14 454.45 64.28
  C 457.75 65.09 461.11 65.45 462.40 61.47
  C 463.37 58.50 464.95 55.38 466.58 51.33
  Q 469.70 43.56 477.54 31.94
  Q 477.81 31.54 478.28 31.56
  L 494.73 32.43
  Z
  M 489.48 46.87
  Q 487.10 48.96 486.34 51.97
  Q 486.02 53.23 487.32 53.17
  L 495.92 52.80
  A 0.72 0.72 0.0 0 0 496.42 51.60
  L 492.19 47.01
  A 1.95 1.94 -41.9 0 0 489.48 46.87
  Z"
/>
<path fill="#574630" d="
  M 654.38 42.24
  L 643.62 41.23
  A 1.13 1.12 80.4 0 1 642.70 40.57
  Q 641.20 37.22 641.36 33.49
  Q 641.38 33.02 641.85 32.95
  C 650.60 31.65 656.18 32.30 663.34 32.51
  C 671.22 32.75 679.03 33.37 686.94 33.41
  C 691.71 33.43 696.51 35.24 701.59 35.11
  C 706.33 34.98 724.43 41.19 725.88 46.19
  Q 728.78 56.16 726.79 64.51
  C 724.01 76.19 690.13 75.79 681.29 75.44
  C 667.45 74.90 654.34 77.01 640.90 72.97
  Q 640.40 72.82 640.40 72.30
  L 640.30 63.75
  A 0.92 0.92 0.0 0 1 640.99 62.85
  Q 646.08 61.53 651.29 62.20
  A 1.15 1.15 0.0 0 0 652.59 61.17
  C 653.15 55.46 654.80 48.73 654.74 42.63
  Q 654.74 42.28 654.38 42.24
  Z
  M 677.81 45.15
  L 677.55 60.29
  A 2.90 2.90 0.0 0 0 680.40 63.24
  L 684.10 63.30
  A 15.22 9.46 1.0 0 0 699.48 54.11
  L 699.52 52.09
  A 15.22 9.46 1.0 0 0 684.46 42.37
  L 680.76 42.30
  A 2.90 2.90 0.0 0 0 677.81 45.15
  Z"
/>
<path fill="#5f666e" d="
  M 526.28 56.43
  L 528.04 62.42
  Q 518.75 50.79 509.41 39.17
  C 504.79 33.42 501.73 33.23 494.73 32.43
  Q 500.80 31.68 506.13 34.43
  Q 508.44 35.62 510.92 38.70
  C 514.58 43.24 518.77 47.24 522.38 51.84
  Q 524.19 54.14 526.28 56.43
  Z"
/>
<path fill="#b4a157" d="
  M 388.04 33.67
  C 389.02 38.07 390.77 42.05 391.37 46.58
  Q 392.12 52.30 393.73 57.85
  C 394.79 61.53 394.86 64.98 395.50 68.70
  C 396.79 76.24 385.19 82.59 379.73 84.21
  Q 376.31 85.22 367.56 87.06
  C 362.07 88.21 356.31 87.52 350.61 87.98
  C 336.55 89.10 321.62 87.83 307.49 87.40
  C 294.31 87.01 278.52 87.89 263.95 86.94
  Q 261.92 86.81 258.08 87.27
  C 254.29 87.73 250.33 86.80 247.22 86.77
  C 242.29 86.72 237.74 87.10 232.78 85.98
  C 229.87 85.32 227.00 85.17 224.36 83.62
  Q 218.61 80.26 212.14 78.45
  Q 211.30 78.22 210.66 76.07
  C 214.70 77.44 219.43 77.81 223.02 79.70
  C 232.42 84.64 241.61 82.34 251.65 82.78
  C 264.47 83.35 277.07 83.18 290.10 83.74
  Q 300.51 84.19 310.94 84.12
  C 319.38 84.06 331.70 82.64 342.26 83.07
  Q 342.74 83.09 342.75 83.57
  Q 342.75 83.71 342.75 83.85
  Q 342.75 84.27 343.17 84.34
  Q 347.54 85.02 351.82 84.31
  C 356.60 83.51 360.45 84.94 364.92 84.21
  C 372.26 83.01 378.53 81.32 385.22 78.01
  Q 385.64 77.81 386.10 77.78
  C 387.01 77.73 387.56 77.12 387.68 76.22
  Q 388.15 72.88 387.98 69.50
  Q 387.46 59.12 387.12 48.74
  C 387.07 47.08 386.11 43.78 386.46 41.25
  Q 386.69 39.64 386.47 38.27
  Q 385.85 34.28 388.04 33.67
  Z"
/>
<path fill="#cb9e2c" d="
  M 297.82 45.38
  A 0.30 0.30 0.0 0 1 297.51 45.09
  L 297.48 44.21
  A 3.78 3.08 87.9 0 1 300.42 40.32
  L 300.42 40.32
  A 3.78 3.08 87.9 0 1 303.64 43.99
  L 303.67 44.87
  A 0.30 0.30 0.0 0 1 303.38 45.18
  L 297.82 45.38
  Z"
/>
<path fill="#bc8b00" d="
  M 677.81 45.15
  A 2.90 2.90 0.0 0 1 680.76 42.30
  L 684.46 42.37
  A 15.22 9.46 1.0 0 1 699.52 52.09
  L 699.48 54.11
  A 15.22 9.46 1.0 0 1 684.10 63.30
  L 680.40 63.24
  A 2.90 2.90 0.0 0 1 677.55 60.29
  L 677.81 45.15
  Z"
/>
<path fill="#53544f" d="
  M 489.48 46.87
  A 1.95 1.94 -41.9 0 1 492.19 47.01
  L 496.42 51.60
  A 0.72 0.72 0.0 0 1 495.92 52.80
  L 487.32 53.17
  Q 486.02 53.23 486.34 51.97
  Q 487.10 48.96 489.48 46.87
  Z"
/>
<path fill="#c1ae9b" d="
  M 596.94 46.75
  Q 598.28 48.81 597.40 52.73
  Q 596.33 57.47 594.67 68.67
  C 593.47 76.82 598.31 80.92 605.75 82.71
  Q 620.56 86.28 632.17 87.21
  Q 632.65 87.25 633.04 87.51
  Q 633.63 87.89 634.50 87.79
  C 639.56 87.23 645.14 88.65 649.27 88.82
  C 659.64 89.25 671.08 90.12 681.80 89.81
  C 697.42 89.37 713.01 89.73 728.62 89.87
  C 737.60 89.95 746.89 90.74 756.32 88.95
  Q 762.00 87.11 761.96 89.74
  C 754.61 93.34 743.42 93.30 734.73 93.25
  Q 679.99 92.93 655.75 92.97
  C 652.19 92.97 648.87 91.97 645.54 92.58
  C 639.40 93.70 633.06 92.07 627.52 91.54
  C 614.76 90.33 599.86 87.50 593.20 76.02
  C 590.37 71.15 595.39 52.96 596.94 46.75
  Z"
/>
<path fill="#b4a157" d="
  M 212.27 49.99
  Q 213.04 50.33 213.17 50.19
  A 0.45 0.30 85.9 0 1 213.63 50.78
  Q 210.94 59.21 210.97 68.08
  Q 210.98 68.47 210.59 68.56
  Q 209.04 68.89 209.43 68.02
  Q 209.03 58.60 212.27 49.99
  Z"
/>
<path fill="#5f666e" d="
  M 579.28 59.08
  Q 581.47 61.42 579.26 62.76
  A 2.28 2.27 -20.4 0 0 578.20 65.07
  Q 578.70 68.16 576.91 70.63
  Q 576.65 71.00 576.67 71.45
  C 577.32 85.10 551.70 88.65 542.18 88.25
  C 539.49 88.14 536.96 89.33 534.40 88.84
  Q 529.48 87.89 527.49 88.23
  C 522.92 89.01 517.66 88.17 514.17 88.21
  Q 480.71 88.59 447.28 87.37
  C 437.18 87.00 420.14 85.25 413.94 75.84
  L 415.66 75.76
  Q 416.16 75.74 416.54 76.06
  C 422.60 81.06 428.67 82.99 436.32 83.40
  Q 438.67 83.52 442.62 84.14
  C 445.44 84.57 448.25 84.47 451.08 84.94
  Q 455.25 85.64 459.45 85.52
  C 469.29 85.24 479.10 85.43 488.95 85.26
  C 501.39 85.04 514.39 85.69 527.16 85.51
  C 531.83 85.44 538.11 86.43 543.85 85.46
  Q 544.37 85.37 544.68 84.96
  C 547.86 80.84 551.71 84.27 555.68 84.02
  Q 565.70 83.39 572.78 78.01
  C 574.97 76.35 575.19 72.52 575.70 70.53
  C 576.83 66.17 577.03 63.14 579.28 59.08
  Z"
/>
<path fill="#5f666e" d="
  M 193.53 64.03
  L 193.99 68.90
  Q 194.03 69.38 193.88 69.84
  C 191.09 78.16 176.32 82.21 168.90 84.88
  Q 165.90 85.95 162.75 86.01
  C 145.52 86.33 128.32 86.05 111.06 86.67
  Q 84.13 87.62 60.00 87.52
  C 47.90 87.47 36.57 84.83 28.39 76.07
  A 1.44 1.42 -68.8 0 1 28.02 75.22
  L 27.78 71.87
  C 29.78 74.81 31.13 77.58 34.25 79.48
  Q 39.74 82.80 41.80 82.99
  C 45.90 83.36 50.03 84.76 53.79 84.97
  C 64.05 85.53 75.02 84.46 84.33 84.49
  C 90.43 84.50 96.30 84.55 102.56 84.23
  Q 131.00 82.79 159.49 83.31
  C 164.58 83.41 170.72 82.57 175.35 80.35
  Q 177.72 79.21 180.20 78.33
  C 184.11 76.95 186.92 74.23 190.44 72.18
  A 0.74 0.72 81.7 0 0 190.79 71.70
  L 192.55 64.02
  A 0.36 0.35 -78.5 0 1 192.95 63.75
  Q 193.22 63.80 193.53 64.03
  Z"
/>
</svg>
